%TF.GenerationSoftware,KiCad,Pcbnew,9.0.3*%
%TF.CreationDate,2025-12-27T22:39:14+05:30*%
%TF.ProjectId,STM32+ESP32,53544d33-322b-4455-9350-33322e6b6963,rev?*%
%TF.SameCoordinates,Original*%
%TF.FileFunction,Drillmap*%
%TF.FilePolarity,Positive*%
%FSLAX45Y45*%
G04 Gerber Fmt 4.5, Leading zero omitted, Abs format (unit mm)*
G04 Created by KiCad (PCBNEW 9.0.3) date 2025-12-27 22:39:14*
%MOMM*%
%LPD*%
G01*
G04 APERTURE LIST*
%ADD10C,0.050000*%
%ADD11C,0.200000*%
%ADD12C,0.100000*%
G04 APERTURE END LIST*
D10*
X15000000Y-16500000D02*
X27500000Y-16500000D01*
X27500000Y-30000000D01*
X15000000Y-30000000D01*
X15000000Y-16500000D01*
D11*
D12*
X26875000Y-26210000D02*
X26975000Y-26310000D01*
X26975000Y-26210000D02*
X26875000Y-26310000D01*
X26875000Y-27010000D02*
X26975000Y-27110000D01*
X26975000Y-27010000D02*
X26875000Y-27110000D01*
D11*
X15258277Y-30313984D02*
X15258277Y-30113984D01*
X15258277Y-30113984D02*
X15305896Y-30113984D01*
X15305896Y-30113984D02*
X15334467Y-30123508D01*
X15334467Y-30123508D02*
X15353515Y-30142555D01*
X15353515Y-30142555D02*
X15363039Y-30161603D01*
X15363039Y-30161603D02*
X15372562Y-30199698D01*
X15372562Y-30199698D02*
X15372562Y-30228269D01*
X15372562Y-30228269D02*
X15363039Y-30266365D01*
X15363039Y-30266365D02*
X15353515Y-30285412D01*
X15353515Y-30285412D02*
X15334467Y-30304460D01*
X15334467Y-30304460D02*
X15305896Y-30313984D01*
X15305896Y-30313984D02*
X15258277Y-30313984D01*
X15458277Y-30313984D02*
X15458277Y-30180650D01*
X15458277Y-30218746D02*
X15467801Y-30199698D01*
X15467801Y-30199698D02*
X15477324Y-30190174D01*
X15477324Y-30190174D02*
X15496372Y-30180650D01*
X15496372Y-30180650D02*
X15515420Y-30180650D01*
X15582086Y-30313984D02*
X15582086Y-30180650D01*
X15582086Y-30113984D02*
X15572562Y-30123508D01*
X15572562Y-30123508D02*
X15582086Y-30133031D01*
X15582086Y-30133031D02*
X15591610Y-30123508D01*
X15591610Y-30123508D02*
X15582086Y-30113984D01*
X15582086Y-30113984D02*
X15582086Y-30133031D01*
X15705896Y-30313984D02*
X15686848Y-30304460D01*
X15686848Y-30304460D02*
X15677324Y-30285412D01*
X15677324Y-30285412D02*
X15677324Y-30113984D01*
X15810658Y-30313984D02*
X15791610Y-30304460D01*
X15791610Y-30304460D02*
X15782086Y-30285412D01*
X15782086Y-30285412D02*
X15782086Y-30113984D01*
X16039229Y-30313984D02*
X16039229Y-30113984D01*
X16039229Y-30113984D02*
X16105896Y-30256841D01*
X16105896Y-30256841D02*
X16172562Y-30113984D01*
X16172562Y-30113984D02*
X16172562Y-30313984D01*
X16353515Y-30313984D02*
X16353515Y-30209222D01*
X16353515Y-30209222D02*
X16343991Y-30190174D01*
X16343991Y-30190174D02*
X16324943Y-30180650D01*
X16324943Y-30180650D02*
X16286848Y-30180650D01*
X16286848Y-30180650D02*
X16267801Y-30190174D01*
X16353515Y-30304460D02*
X16334467Y-30313984D01*
X16334467Y-30313984D02*
X16286848Y-30313984D01*
X16286848Y-30313984D02*
X16267801Y-30304460D01*
X16267801Y-30304460D02*
X16258277Y-30285412D01*
X16258277Y-30285412D02*
X16258277Y-30266365D01*
X16258277Y-30266365D02*
X16267801Y-30247317D01*
X16267801Y-30247317D02*
X16286848Y-30237793D01*
X16286848Y-30237793D02*
X16334467Y-30237793D01*
X16334467Y-30237793D02*
X16353515Y-30228269D01*
X16448753Y-30180650D02*
X16448753Y-30380650D01*
X16448753Y-30190174D02*
X16467801Y-30180650D01*
X16467801Y-30180650D02*
X16505896Y-30180650D01*
X16505896Y-30180650D02*
X16524943Y-30190174D01*
X16524943Y-30190174D02*
X16534467Y-30199698D01*
X16534467Y-30199698D02*
X16543991Y-30218746D01*
X16543991Y-30218746D02*
X16543991Y-30275888D01*
X16543991Y-30275888D02*
X16534467Y-30294936D01*
X16534467Y-30294936D02*
X16524943Y-30304460D01*
X16524943Y-30304460D02*
X16505896Y-30313984D01*
X16505896Y-30313984D02*
X16467801Y-30313984D01*
X16467801Y-30313984D02*
X16448753Y-30304460D01*
X16629705Y-30294936D02*
X16639229Y-30304460D01*
X16639229Y-30304460D02*
X16629705Y-30313984D01*
X16629705Y-30313984D02*
X16620182Y-30304460D01*
X16620182Y-30304460D02*
X16629705Y-30294936D01*
X16629705Y-30294936D02*
X16629705Y-30313984D01*
X16629705Y-30190174D02*
X16639229Y-30199698D01*
X16639229Y-30199698D02*
X16629705Y-30209222D01*
X16629705Y-30209222D02*
X16620182Y-30199698D01*
X16620182Y-30199698D02*
X16629705Y-30190174D01*
X16629705Y-30190174D02*
X16629705Y-30209222D01*
D12*
X14897500Y-30592500D02*
X14997500Y-30692500D01*
X14997500Y-30592500D02*
X14897500Y-30692500D01*
D11*
X15363039Y-30733984D02*
X15248753Y-30733984D01*
X15305896Y-30733984D02*
X15305896Y-30533984D01*
X15305896Y-30533984D02*
X15286848Y-30562555D01*
X15286848Y-30562555D02*
X15267801Y-30581603D01*
X15267801Y-30581603D02*
X15248753Y-30591127D01*
X15448753Y-30714936D02*
X15458277Y-30724460D01*
X15458277Y-30724460D02*
X15448753Y-30733984D01*
X15448753Y-30733984D02*
X15439229Y-30724460D01*
X15439229Y-30724460D02*
X15448753Y-30714936D01*
X15448753Y-30714936D02*
X15448753Y-30733984D01*
X15582086Y-30533984D02*
X15601134Y-30533984D01*
X15601134Y-30533984D02*
X15620182Y-30543508D01*
X15620182Y-30543508D02*
X15629705Y-30553031D01*
X15629705Y-30553031D02*
X15639229Y-30572079D01*
X15639229Y-30572079D02*
X15648753Y-30610174D01*
X15648753Y-30610174D02*
X15648753Y-30657793D01*
X15648753Y-30657793D02*
X15639229Y-30695888D01*
X15639229Y-30695888D02*
X15629705Y-30714936D01*
X15629705Y-30714936D02*
X15620182Y-30724460D01*
X15620182Y-30724460D02*
X15601134Y-30733984D01*
X15601134Y-30733984D02*
X15582086Y-30733984D01*
X15582086Y-30733984D02*
X15563039Y-30724460D01*
X15563039Y-30724460D02*
X15553515Y-30714936D01*
X15553515Y-30714936D02*
X15543991Y-30695888D01*
X15543991Y-30695888D02*
X15534467Y-30657793D01*
X15534467Y-30657793D02*
X15534467Y-30610174D01*
X15534467Y-30610174D02*
X15543991Y-30572079D01*
X15543991Y-30572079D02*
X15553515Y-30553031D01*
X15553515Y-30553031D02*
X15563039Y-30543508D01*
X15563039Y-30543508D02*
X15582086Y-30533984D01*
X15772562Y-30533984D02*
X15791610Y-30533984D01*
X15791610Y-30533984D02*
X15810658Y-30543508D01*
X15810658Y-30543508D02*
X15820182Y-30553031D01*
X15820182Y-30553031D02*
X15829705Y-30572079D01*
X15829705Y-30572079D02*
X15839229Y-30610174D01*
X15839229Y-30610174D02*
X15839229Y-30657793D01*
X15839229Y-30657793D02*
X15829705Y-30695888D01*
X15829705Y-30695888D02*
X15820182Y-30714936D01*
X15820182Y-30714936D02*
X15810658Y-30724460D01*
X15810658Y-30724460D02*
X15791610Y-30733984D01*
X15791610Y-30733984D02*
X15772562Y-30733984D01*
X15772562Y-30733984D02*
X15753515Y-30724460D01*
X15753515Y-30724460D02*
X15743991Y-30714936D01*
X15743991Y-30714936D02*
X15734467Y-30695888D01*
X15734467Y-30695888D02*
X15724943Y-30657793D01*
X15724943Y-30657793D02*
X15724943Y-30610174D01*
X15724943Y-30610174D02*
X15734467Y-30572079D01*
X15734467Y-30572079D02*
X15743991Y-30553031D01*
X15743991Y-30553031D02*
X15753515Y-30543508D01*
X15753515Y-30543508D02*
X15772562Y-30533984D01*
X15963039Y-30533984D02*
X15982086Y-30533984D01*
X15982086Y-30533984D02*
X16001134Y-30543508D01*
X16001134Y-30543508D02*
X16010658Y-30553031D01*
X16010658Y-30553031D02*
X16020182Y-30572079D01*
X16020182Y-30572079D02*
X16029705Y-30610174D01*
X16029705Y-30610174D02*
X16029705Y-30657793D01*
X16029705Y-30657793D02*
X16020182Y-30695888D01*
X16020182Y-30695888D02*
X16010658Y-30714936D01*
X16010658Y-30714936D02*
X16001134Y-30724460D01*
X16001134Y-30724460D02*
X15982086Y-30733984D01*
X15982086Y-30733984D02*
X15963039Y-30733984D01*
X15963039Y-30733984D02*
X15943991Y-30724460D01*
X15943991Y-30724460D02*
X15934467Y-30714936D01*
X15934467Y-30714936D02*
X15924943Y-30695888D01*
X15924943Y-30695888D02*
X15915420Y-30657793D01*
X15915420Y-30657793D02*
X15915420Y-30610174D01*
X15915420Y-30610174D02*
X15924943Y-30572079D01*
X15924943Y-30572079D02*
X15934467Y-30553031D01*
X15934467Y-30553031D02*
X15943991Y-30543508D01*
X15943991Y-30543508D02*
X15963039Y-30533984D01*
X16115420Y-30733984D02*
X16115420Y-30600650D01*
X16115420Y-30619698D02*
X16124943Y-30610174D01*
X16124943Y-30610174D02*
X16143991Y-30600650D01*
X16143991Y-30600650D02*
X16172563Y-30600650D01*
X16172563Y-30600650D02*
X16191610Y-30610174D01*
X16191610Y-30610174D02*
X16201134Y-30629222D01*
X16201134Y-30629222D02*
X16201134Y-30733984D01*
X16201134Y-30629222D02*
X16210658Y-30610174D01*
X16210658Y-30610174D02*
X16229705Y-30600650D01*
X16229705Y-30600650D02*
X16258277Y-30600650D01*
X16258277Y-30600650D02*
X16277324Y-30610174D01*
X16277324Y-30610174D02*
X16286848Y-30629222D01*
X16286848Y-30629222D02*
X16286848Y-30733984D01*
X16382086Y-30733984D02*
X16382086Y-30600650D01*
X16382086Y-30619698D02*
X16391610Y-30610174D01*
X16391610Y-30610174D02*
X16410658Y-30600650D01*
X16410658Y-30600650D02*
X16439229Y-30600650D01*
X16439229Y-30600650D02*
X16458277Y-30610174D01*
X16458277Y-30610174D02*
X16467801Y-30629222D01*
X16467801Y-30629222D02*
X16467801Y-30733984D01*
X16467801Y-30629222D02*
X16477324Y-30610174D01*
X16477324Y-30610174D02*
X16496372Y-30600650D01*
X16496372Y-30600650D02*
X16524943Y-30600650D01*
X16524943Y-30600650D02*
X16543991Y-30610174D01*
X16543991Y-30610174D02*
X16553515Y-30629222D01*
X16553515Y-30629222D02*
X16553515Y-30733984D01*
X16943991Y-30524460D02*
X16772563Y-30781603D01*
X17201134Y-30533984D02*
X17220182Y-30533984D01*
X17220182Y-30533984D02*
X17239229Y-30543508D01*
X17239229Y-30543508D02*
X17248753Y-30553031D01*
X17248753Y-30553031D02*
X17258277Y-30572079D01*
X17258277Y-30572079D02*
X17267801Y-30610174D01*
X17267801Y-30610174D02*
X17267801Y-30657793D01*
X17267801Y-30657793D02*
X17258277Y-30695888D01*
X17258277Y-30695888D02*
X17248753Y-30714936D01*
X17248753Y-30714936D02*
X17239229Y-30724460D01*
X17239229Y-30724460D02*
X17220182Y-30733984D01*
X17220182Y-30733984D02*
X17201134Y-30733984D01*
X17201134Y-30733984D02*
X17182087Y-30724460D01*
X17182087Y-30724460D02*
X17172563Y-30714936D01*
X17172563Y-30714936D02*
X17163039Y-30695888D01*
X17163039Y-30695888D02*
X17153515Y-30657793D01*
X17153515Y-30657793D02*
X17153515Y-30610174D01*
X17153515Y-30610174D02*
X17163039Y-30572079D01*
X17163039Y-30572079D02*
X17172563Y-30553031D01*
X17172563Y-30553031D02*
X17182087Y-30543508D01*
X17182087Y-30543508D02*
X17201134Y-30533984D01*
X17353515Y-30714936D02*
X17363039Y-30724460D01*
X17363039Y-30724460D02*
X17353515Y-30733984D01*
X17353515Y-30733984D02*
X17343991Y-30724460D01*
X17343991Y-30724460D02*
X17353515Y-30714936D01*
X17353515Y-30714936D02*
X17353515Y-30733984D01*
X17486848Y-30533984D02*
X17505896Y-30533984D01*
X17505896Y-30533984D02*
X17524944Y-30543508D01*
X17524944Y-30543508D02*
X17534468Y-30553031D01*
X17534468Y-30553031D02*
X17543991Y-30572079D01*
X17543991Y-30572079D02*
X17553515Y-30610174D01*
X17553515Y-30610174D02*
X17553515Y-30657793D01*
X17553515Y-30657793D02*
X17543991Y-30695888D01*
X17543991Y-30695888D02*
X17534468Y-30714936D01*
X17534468Y-30714936D02*
X17524944Y-30724460D01*
X17524944Y-30724460D02*
X17505896Y-30733984D01*
X17505896Y-30733984D02*
X17486848Y-30733984D01*
X17486848Y-30733984D02*
X17467801Y-30724460D01*
X17467801Y-30724460D02*
X17458277Y-30714936D01*
X17458277Y-30714936D02*
X17448753Y-30695888D01*
X17448753Y-30695888D02*
X17439229Y-30657793D01*
X17439229Y-30657793D02*
X17439229Y-30610174D01*
X17439229Y-30610174D02*
X17448753Y-30572079D01*
X17448753Y-30572079D02*
X17458277Y-30553031D01*
X17458277Y-30553031D02*
X17467801Y-30543508D01*
X17467801Y-30543508D02*
X17486848Y-30533984D01*
X17620182Y-30533984D02*
X17743991Y-30533984D01*
X17743991Y-30533984D02*
X17677325Y-30610174D01*
X17677325Y-30610174D02*
X17705896Y-30610174D01*
X17705896Y-30610174D02*
X17724944Y-30619698D01*
X17724944Y-30619698D02*
X17734468Y-30629222D01*
X17734468Y-30629222D02*
X17743991Y-30648269D01*
X17743991Y-30648269D02*
X17743991Y-30695888D01*
X17743991Y-30695888D02*
X17734468Y-30714936D01*
X17734468Y-30714936D02*
X17724944Y-30724460D01*
X17724944Y-30724460D02*
X17705896Y-30733984D01*
X17705896Y-30733984D02*
X17648753Y-30733984D01*
X17648753Y-30733984D02*
X17629706Y-30724460D01*
X17629706Y-30724460D02*
X17620182Y-30714936D01*
X17839229Y-30733984D02*
X17877325Y-30733984D01*
X17877325Y-30733984D02*
X17896372Y-30724460D01*
X17896372Y-30724460D02*
X17905896Y-30714936D01*
X17905896Y-30714936D02*
X17924944Y-30686365D01*
X17924944Y-30686365D02*
X17934468Y-30648269D01*
X17934468Y-30648269D02*
X17934468Y-30572079D01*
X17934468Y-30572079D02*
X17924944Y-30553031D01*
X17924944Y-30553031D02*
X17915420Y-30543508D01*
X17915420Y-30543508D02*
X17896372Y-30533984D01*
X17896372Y-30533984D02*
X17858277Y-30533984D01*
X17858277Y-30533984D02*
X17839229Y-30543508D01*
X17839229Y-30543508D02*
X17829706Y-30553031D01*
X17829706Y-30553031D02*
X17820182Y-30572079D01*
X17820182Y-30572079D02*
X17820182Y-30619698D01*
X17820182Y-30619698D02*
X17829706Y-30638746D01*
X17829706Y-30638746D02*
X17839229Y-30648269D01*
X17839229Y-30648269D02*
X17858277Y-30657793D01*
X17858277Y-30657793D02*
X17896372Y-30657793D01*
X17896372Y-30657793D02*
X17915420Y-30648269D01*
X17915420Y-30648269D02*
X17924944Y-30638746D01*
X17924944Y-30638746D02*
X17934468Y-30619698D01*
X18105896Y-30600650D02*
X18105896Y-30733984D01*
X18058277Y-30524460D02*
X18010658Y-30667317D01*
X18010658Y-30667317D02*
X18134468Y-30667317D01*
X18201134Y-30533984D02*
X18201134Y-30572079D01*
X18277325Y-30533984D02*
X18277325Y-30572079D01*
X18572563Y-30810174D02*
X18563039Y-30800650D01*
X18563039Y-30800650D02*
X18543991Y-30772079D01*
X18543991Y-30772079D02*
X18534468Y-30753031D01*
X18534468Y-30753031D02*
X18524944Y-30724460D01*
X18524944Y-30724460D02*
X18515420Y-30676841D01*
X18515420Y-30676841D02*
X18515420Y-30638746D01*
X18515420Y-30638746D02*
X18524944Y-30591127D01*
X18524944Y-30591127D02*
X18534468Y-30562555D01*
X18534468Y-30562555D02*
X18543991Y-30543508D01*
X18543991Y-30543508D02*
X18563039Y-30514936D01*
X18563039Y-30514936D02*
X18572563Y-30505412D01*
X18639230Y-30553031D02*
X18648753Y-30543508D01*
X18648753Y-30543508D02*
X18667801Y-30533984D01*
X18667801Y-30533984D02*
X18715420Y-30533984D01*
X18715420Y-30533984D02*
X18734468Y-30543508D01*
X18734468Y-30543508D02*
X18743991Y-30553031D01*
X18743991Y-30553031D02*
X18753515Y-30572079D01*
X18753515Y-30572079D02*
X18753515Y-30591127D01*
X18753515Y-30591127D02*
X18743991Y-30619698D01*
X18743991Y-30619698D02*
X18629706Y-30733984D01*
X18629706Y-30733984D02*
X18753515Y-30733984D01*
X18991611Y-30733984D02*
X18991611Y-30533984D01*
X19077325Y-30733984D02*
X19077325Y-30629222D01*
X19077325Y-30629222D02*
X19067801Y-30610174D01*
X19067801Y-30610174D02*
X19048753Y-30600650D01*
X19048753Y-30600650D02*
X19020182Y-30600650D01*
X19020182Y-30600650D02*
X19001134Y-30610174D01*
X19001134Y-30610174D02*
X18991611Y-30619698D01*
X19201134Y-30733984D02*
X19182087Y-30724460D01*
X19182087Y-30724460D02*
X19172563Y-30714936D01*
X19172563Y-30714936D02*
X19163039Y-30695888D01*
X19163039Y-30695888D02*
X19163039Y-30638746D01*
X19163039Y-30638746D02*
X19172563Y-30619698D01*
X19172563Y-30619698D02*
X19182087Y-30610174D01*
X19182087Y-30610174D02*
X19201134Y-30600650D01*
X19201134Y-30600650D02*
X19229706Y-30600650D01*
X19229706Y-30600650D02*
X19248753Y-30610174D01*
X19248753Y-30610174D02*
X19258277Y-30619698D01*
X19258277Y-30619698D02*
X19267801Y-30638746D01*
X19267801Y-30638746D02*
X19267801Y-30695888D01*
X19267801Y-30695888D02*
X19258277Y-30714936D01*
X19258277Y-30714936D02*
X19248753Y-30724460D01*
X19248753Y-30724460D02*
X19229706Y-30733984D01*
X19229706Y-30733984D02*
X19201134Y-30733984D01*
X19382087Y-30733984D02*
X19363039Y-30724460D01*
X19363039Y-30724460D02*
X19353515Y-30705412D01*
X19353515Y-30705412D02*
X19353515Y-30533984D01*
X19534468Y-30724460D02*
X19515420Y-30733984D01*
X19515420Y-30733984D02*
X19477325Y-30733984D01*
X19477325Y-30733984D02*
X19458277Y-30724460D01*
X19458277Y-30724460D02*
X19448753Y-30705412D01*
X19448753Y-30705412D02*
X19448753Y-30629222D01*
X19448753Y-30629222D02*
X19458277Y-30610174D01*
X19458277Y-30610174D02*
X19477325Y-30600650D01*
X19477325Y-30600650D02*
X19515420Y-30600650D01*
X19515420Y-30600650D02*
X19534468Y-30610174D01*
X19534468Y-30610174D02*
X19543992Y-30629222D01*
X19543992Y-30629222D02*
X19543992Y-30648269D01*
X19543992Y-30648269D02*
X19448753Y-30667317D01*
X19620182Y-30724460D02*
X19639230Y-30733984D01*
X19639230Y-30733984D02*
X19677325Y-30733984D01*
X19677325Y-30733984D02*
X19696373Y-30724460D01*
X19696373Y-30724460D02*
X19705896Y-30705412D01*
X19705896Y-30705412D02*
X19705896Y-30695888D01*
X19705896Y-30695888D02*
X19696373Y-30676841D01*
X19696373Y-30676841D02*
X19677325Y-30667317D01*
X19677325Y-30667317D02*
X19648753Y-30667317D01*
X19648753Y-30667317D02*
X19629706Y-30657793D01*
X19629706Y-30657793D02*
X19620182Y-30638746D01*
X19620182Y-30638746D02*
X19620182Y-30629222D01*
X19620182Y-30629222D02*
X19629706Y-30610174D01*
X19629706Y-30610174D02*
X19648753Y-30600650D01*
X19648753Y-30600650D02*
X19677325Y-30600650D01*
X19677325Y-30600650D02*
X19696373Y-30610174D01*
X19772563Y-30810174D02*
X19782087Y-30800650D01*
X19782087Y-30800650D02*
X19801134Y-30772079D01*
X19801134Y-30772079D02*
X19810658Y-30753031D01*
X19810658Y-30753031D02*
X19820182Y-30724460D01*
X19820182Y-30724460D02*
X19829706Y-30676841D01*
X19829706Y-30676841D02*
X19829706Y-30638746D01*
X19829706Y-30638746D02*
X19820182Y-30591127D01*
X19820182Y-30591127D02*
X19810658Y-30562555D01*
X19810658Y-30562555D02*
X19801134Y-30543508D01*
X19801134Y-30543508D02*
X19782087Y-30514936D01*
X19782087Y-30514936D02*
X19772563Y-30505412D01*
X20134468Y-30810174D02*
X20124944Y-30800650D01*
X20124944Y-30800650D02*
X20105896Y-30772079D01*
X20105896Y-30772079D02*
X20096373Y-30753031D01*
X20096373Y-30753031D02*
X20086849Y-30724460D01*
X20086849Y-30724460D02*
X20077325Y-30676841D01*
X20077325Y-30676841D02*
X20077325Y-30638746D01*
X20077325Y-30638746D02*
X20086849Y-30591127D01*
X20086849Y-30591127D02*
X20096373Y-30562555D01*
X20096373Y-30562555D02*
X20105896Y-30543508D01*
X20105896Y-30543508D02*
X20124944Y-30514936D01*
X20124944Y-30514936D02*
X20134468Y-30505412D01*
X20210658Y-30600650D02*
X20210658Y-30733984D01*
X20210658Y-30619698D02*
X20220182Y-30610174D01*
X20220182Y-30610174D02*
X20239230Y-30600650D01*
X20239230Y-30600650D02*
X20267801Y-30600650D01*
X20267801Y-30600650D02*
X20286849Y-30610174D01*
X20286849Y-30610174D02*
X20296373Y-30629222D01*
X20296373Y-30629222D02*
X20296373Y-30733984D01*
X20420182Y-30733984D02*
X20401134Y-30724460D01*
X20401134Y-30724460D02*
X20391611Y-30714936D01*
X20391611Y-30714936D02*
X20382087Y-30695888D01*
X20382087Y-30695888D02*
X20382087Y-30638746D01*
X20382087Y-30638746D02*
X20391611Y-30619698D01*
X20391611Y-30619698D02*
X20401134Y-30610174D01*
X20401134Y-30610174D02*
X20420182Y-30600650D01*
X20420182Y-30600650D02*
X20448754Y-30600650D01*
X20448754Y-30600650D02*
X20467801Y-30610174D01*
X20467801Y-30610174D02*
X20477325Y-30619698D01*
X20477325Y-30619698D02*
X20486849Y-30638746D01*
X20486849Y-30638746D02*
X20486849Y-30695888D01*
X20486849Y-30695888D02*
X20477325Y-30714936D01*
X20477325Y-30714936D02*
X20467801Y-30724460D01*
X20467801Y-30724460D02*
X20448754Y-30733984D01*
X20448754Y-30733984D02*
X20420182Y-30733984D01*
X20543992Y-30600650D02*
X20620182Y-30600650D01*
X20572563Y-30533984D02*
X20572563Y-30705412D01*
X20572563Y-30705412D02*
X20582087Y-30724460D01*
X20582087Y-30724460D02*
X20601134Y-30733984D01*
X20601134Y-30733984D02*
X20620182Y-30733984D01*
X20839230Y-30600650D02*
X20839230Y-30800650D01*
X20839230Y-30610174D02*
X20858277Y-30600650D01*
X20858277Y-30600650D02*
X20896373Y-30600650D01*
X20896373Y-30600650D02*
X20915420Y-30610174D01*
X20915420Y-30610174D02*
X20924944Y-30619698D01*
X20924944Y-30619698D02*
X20934468Y-30638746D01*
X20934468Y-30638746D02*
X20934468Y-30695888D01*
X20934468Y-30695888D02*
X20924944Y-30714936D01*
X20924944Y-30714936D02*
X20915420Y-30724460D01*
X20915420Y-30724460D02*
X20896373Y-30733984D01*
X20896373Y-30733984D02*
X20858277Y-30733984D01*
X20858277Y-30733984D02*
X20839230Y-30724460D01*
X21048754Y-30733984D02*
X21029706Y-30724460D01*
X21029706Y-30724460D02*
X21020182Y-30705412D01*
X21020182Y-30705412D02*
X21020182Y-30533984D01*
X21210658Y-30733984D02*
X21210658Y-30629222D01*
X21210658Y-30629222D02*
X21201135Y-30610174D01*
X21201135Y-30610174D02*
X21182087Y-30600650D01*
X21182087Y-30600650D02*
X21143992Y-30600650D01*
X21143992Y-30600650D02*
X21124944Y-30610174D01*
X21210658Y-30724460D02*
X21191611Y-30733984D01*
X21191611Y-30733984D02*
X21143992Y-30733984D01*
X21143992Y-30733984D02*
X21124944Y-30724460D01*
X21124944Y-30724460D02*
X21115420Y-30705412D01*
X21115420Y-30705412D02*
X21115420Y-30686365D01*
X21115420Y-30686365D02*
X21124944Y-30667317D01*
X21124944Y-30667317D02*
X21143992Y-30657793D01*
X21143992Y-30657793D02*
X21191611Y-30657793D01*
X21191611Y-30657793D02*
X21210658Y-30648269D01*
X21277325Y-30600650D02*
X21353515Y-30600650D01*
X21305896Y-30533984D02*
X21305896Y-30705412D01*
X21305896Y-30705412D02*
X21315420Y-30724460D01*
X21315420Y-30724460D02*
X21334468Y-30733984D01*
X21334468Y-30733984D02*
X21353515Y-30733984D01*
X21496373Y-30724460D02*
X21477325Y-30733984D01*
X21477325Y-30733984D02*
X21439230Y-30733984D01*
X21439230Y-30733984D02*
X21420182Y-30724460D01*
X21420182Y-30724460D02*
X21410658Y-30705412D01*
X21410658Y-30705412D02*
X21410658Y-30629222D01*
X21410658Y-30629222D02*
X21420182Y-30610174D01*
X21420182Y-30610174D02*
X21439230Y-30600650D01*
X21439230Y-30600650D02*
X21477325Y-30600650D01*
X21477325Y-30600650D02*
X21496373Y-30610174D01*
X21496373Y-30610174D02*
X21505896Y-30629222D01*
X21505896Y-30629222D02*
X21505896Y-30648269D01*
X21505896Y-30648269D02*
X21410658Y-30667317D01*
X21677325Y-30733984D02*
X21677325Y-30533984D01*
X21677325Y-30724460D02*
X21658277Y-30733984D01*
X21658277Y-30733984D02*
X21620182Y-30733984D01*
X21620182Y-30733984D02*
X21601135Y-30724460D01*
X21601135Y-30724460D02*
X21591611Y-30714936D01*
X21591611Y-30714936D02*
X21582087Y-30695888D01*
X21582087Y-30695888D02*
X21582087Y-30638746D01*
X21582087Y-30638746D02*
X21591611Y-30619698D01*
X21591611Y-30619698D02*
X21601135Y-30610174D01*
X21601135Y-30610174D02*
X21620182Y-30600650D01*
X21620182Y-30600650D02*
X21658277Y-30600650D01*
X21658277Y-30600650D02*
X21677325Y-30610174D01*
X21753516Y-30810174D02*
X21763039Y-30800650D01*
X21763039Y-30800650D02*
X21782087Y-30772079D01*
X21782087Y-30772079D02*
X21791611Y-30753031D01*
X21791611Y-30753031D02*
X21801135Y-30724460D01*
X21801135Y-30724460D02*
X21810658Y-30676841D01*
X21810658Y-30676841D02*
X21810658Y-30638746D01*
X21810658Y-30638746D02*
X21801135Y-30591127D01*
X21801135Y-30591127D02*
X21791611Y-30562555D01*
X21791611Y-30562555D02*
X21782087Y-30543508D01*
X21782087Y-30543508D02*
X21763039Y-30514936D01*
X21763039Y-30514936D02*
X21753516Y-30505412D01*
M02*
