%TF.GenerationSoftware,KiCad,Pcbnew,9.0.3*%
%TF.CreationDate,2025-12-27T22:41:26+05:30*%
%TF.ProjectId,STM32+ESP32,53544d33-322b-4455-9350-33322e6b6963,rev?*%
%TF.SameCoordinates,Original*%
%TF.FileFunction,Paste,Top*%
%TF.FilePolarity,Positive*%
%FSLAX46Y46*%
G04 Gerber Fmt 4.6, Leading zero omitted, Abs format (unit mm)*
G04 Created by KiCad (PCBNEW 9.0.3) date 2025-12-27 22:41:26*
%MOMM*%
%LPD*%
G01*
G04 APERTURE LIST*
G04 Aperture macros list*
%AMRoundRect*
0 Rectangle with rounded corners*
0 $1 Rounding radius*
0 $2 $3 $4 $5 $6 $7 $8 $9 X,Y pos of 4 corners*
0 Add a 4 corners polygon primitive as box body*
4,1,4,$2,$3,$4,$5,$6,$7,$8,$9,$2,$3,0*
0 Add four circle primitives for the rounded corners*
1,1,$1+$1,$2,$3*
1,1,$1+$1,$4,$5*
1,1,$1+$1,$6,$7*
1,1,$1+$1,$8,$9*
0 Add four rect primitives between the rounded corners*
20,1,$1+$1,$2,$3,$4,$5,0*
20,1,$1+$1,$4,$5,$6,$7,0*
20,1,$1+$1,$6,$7,$8,$9,0*
20,1,$1+$1,$8,$9,$2,$3,0*%
G04 Aperture macros list end*
%ADD10R,0.590000X1.150000*%
%ADD11R,0.298000X1.150000*%
%ADD12R,0.300000X1.600000*%
%ADD13R,1.600000X0.300000*%
%ADD14R,5.080000X2.790000*%
%ADD15RoundRect,0.250000X-0.400000X-0.625000X0.400000X-0.625000X0.400000X0.625000X-0.400000X0.625000X0*%
%ADD16RoundRect,0.250000X-0.625000X0.400000X-0.625000X-0.400000X0.625000X-0.400000X0.625000X0.400000X0*%
%ADD17RoundRect,0.237500X-0.237500X0.287500X-0.237500X-0.287500X0.237500X-0.287500X0.237500X0.287500X0*%
%ADD18R,1.549400X1.295400*%
%ADD19R,1.000000X0.970000*%
%ADD20RoundRect,0.250000X0.650000X-0.412500X0.650000X0.412500X-0.650000X0.412500X-0.650000X-0.412500X0*%
%ADD21RoundRect,0.250000X0.400000X0.625000X-0.400000X0.625000X-0.400000X-0.625000X0.400000X-0.625000X0*%
%ADD22RoundRect,0.150000X-0.150000X0.512500X-0.150000X-0.512500X0.150000X-0.512500X0.150000X0.512500X0*%
%ADD23RoundRect,0.250000X-0.412500X-0.650000X0.412500X-0.650000X0.412500X0.650000X-0.412500X0.650000X0*%
%ADD24RoundRect,0.250000X-0.650000X0.412500X-0.650000X-0.412500X0.650000X-0.412500X0.650000X0.412500X0*%
%ADD25RoundRect,0.150000X0.150000X-0.587500X0.150000X0.587500X-0.150000X0.587500X-0.150000X-0.587500X0*%
%ADD26RoundRect,0.250000X0.412500X0.650000X-0.412500X0.650000X-0.412500X-0.650000X0.412500X-0.650000X0*%
%ADD27RoundRect,0.237500X0.237500X-0.287500X0.237500X0.287500X-0.237500X0.287500X-0.237500X-0.287500X0*%
%ADD28R,0.700000X0.700000*%
%ADD29R,1.500000X0.900000*%
%ADD30R,0.900000X1.500000*%
%ADD31R,0.900000X0.900000*%
%ADD32R,1.600000X0.700000*%
%ADD33R,1.800000X1.200000*%
%ADD34R,1.500000X1.600000*%
%ADD35R,2.200000X1.200000*%
%ADD36RoundRect,0.069750X-0.395250X0.585250X-0.395250X-0.585250X0.395250X-0.585250X0.395250X0.585250X0*%
%ADD37RoundRect,0.098250X-1.521750X0.556750X-1.521750X-0.556750X1.521750X-0.556750X1.521750X0.556750X0*%
%ADD38RoundRect,0.250000X-1.500000X-0.650000X1.500000X-0.650000X1.500000X0.650000X-1.500000X0.650000X0*%
%ADD39RoundRect,0.250000X0.625000X-0.400000X0.625000X0.400000X-0.625000X0.400000X-0.625000X-0.400000X0*%
%ADD40O,0.890000X1.550000*%
%ADD41O,1.250000X0.950000*%
%ADD42RoundRect,0.100000X-0.100000X-0.575000X0.100000X-0.575000X0.100000X0.575000X-0.100000X0.575000X0*%
%ADD43RoundRect,0.250000X-0.475000X-0.525000X0.475000X-0.525000X0.475000X0.525000X-0.475000X0.525000X0*%
%ADD44RoundRect,0.250000X-0.500000X-0.525000X0.500000X-0.525000X0.500000X0.525000X-0.500000X0.525000X0*%
%ADD45R,1.295400X1.549400*%
%ADD46RoundRect,0.150000X-0.150000X0.825000X-0.150000X-0.825000X0.150000X-0.825000X0.150000X0.825000X0*%
%ADD47RoundRect,0.150000X-0.150000X0.835000X-0.150000X-0.835000X0.150000X-0.835000X0.150000X0.835000X0*%
G04 APERTURE END LIST*
D10*
%TO.C,J1*%
X172800000Y-293550000D03*
X173600000Y-293550000D03*
D11*
X174750000Y-293550000D03*
X175750000Y-293550000D03*
X176250000Y-293550000D03*
X177250000Y-293550000D03*
D10*
X179200000Y-293550000D03*
X178400000Y-293550000D03*
D11*
X177750000Y-293550000D03*
X176750000Y-293550000D03*
X175250000Y-293550000D03*
X174250000Y-293550000D03*
%TD*%
D12*
%TO.C,U1*%
X199250000Y-233900000D03*
X198750000Y-233900000D03*
X198250000Y-233900000D03*
X197750000Y-233900000D03*
X197250000Y-233900000D03*
X196750000Y-233900000D03*
X196250000Y-233900000D03*
X195750000Y-233900000D03*
X195250000Y-233900000D03*
X194750000Y-233900000D03*
X194250000Y-233900000D03*
X193750000Y-233900000D03*
X193250000Y-233900000D03*
X192750000Y-233900000D03*
X192250000Y-233900000D03*
X191750000Y-233900000D03*
D13*
X189900000Y-235750000D03*
X189900000Y-236250000D03*
X189900000Y-236750000D03*
X189900000Y-237250000D03*
X189900000Y-237750000D03*
X189900000Y-238250000D03*
X189900000Y-238750000D03*
X189900000Y-239250000D03*
X189900000Y-239750000D03*
X189900000Y-240250000D03*
X189900000Y-240750000D03*
X189900000Y-241250000D03*
X189900000Y-241750000D03*
X189900000Y-242250000D03*
X189900000Y-242750000D03*
X189900000Y-243250000D03*
D12*
X191750000Y-245100000D03*
X192250000Y-245100000D03*
X192750000Y-245100000D03*
X193250000Y-245100000D03*
X193750000Y-245100000D03*
X194250000Y-245100000D03*
X194750000Y-245100000D03*
X195250000Y-245100000D03*
X195750000Y-245100000D03*
X196250000Y-245100000D03*
X196750000Y-245100000D03*
X197250000Y-245100000D03*
X197750000Y-245100000D03*
X198250000Y-245100000D03*
X198750000Y-245100000D03*
X199250000Y-245100000D03*
D13*
X201100000Y-243250000D03*
X201100000Y-242750000D03*
X201100000Y-242250000D03*
X201100000Y-241750000D03*
X201100000Y-241250000D03*
X201100000Y-240750000D03*
X201100000Y-240250000D03*
X201100000Y-239750000D03*
X201100000Y-239250000D03*
X201100000Y-238750000D03*
X201100000Y-238250000D03*
X201100000Y-237750000D03*
X201100000Y-237250000D03*
X201100000Y-236750000D03*
X201100000Y-236250000D03*
X201100000Y-235750000D03*
%TD*%
D14*
%TO.C,BT1*%
X264100000Y-251470000D03*
X264100000Y-229500000D03*
%TD*%
D15*
%TO.C,R26*%
X163377500Y-252335000D03*
X166477500Y-252335000D03*
%TD*%
D16*
%TO.C,R15*%
X152550000Y-252450000D03*
X152550000Y-255550000D03*
%TD*%
D17*
%TO.C,D4*%
X168000000Y-267425000D03*
X168000000Y-269175000D03*
%TD*%
D16*
%TO.C,R8*%
X182200000Y-266727500D03*
X182200000Y-269827500D03*
%TD*%
D18*
%TO.C,SW8*%
X233425002Y-239249999D03*
X241374998Y-239249999D03*
X233425002Y-243750001D03*
X241374998Y-243750001D03*
%TD*%
D19*
%TO.C,FL1*%
X181830000Y-229800000D03*
X183300000Y-229800000D03*
%TD*%
D15*
%TO.C,R10*%
X227875002Y-243750001D03*
X230975002Y-243750001D03*
%TD*%
D20*
%TO.C,C9*%
X187800000Y-229800000D03*
X187800000Y-226675000D03*
%TD*%
D21*
%TO.C,R16*%
X255350000Y-269900000D03*
X252250000Y-269900000D03*
%TD*%
D16*
%TO.C,R9*%
X183000000Y-294450000D03*
X183000000Y-297550000D03*
%TD*%
D22*
%TO.C,U3*%
X192500000Y-271500000D03*
X191550000Y-271500000D03*
X190600000Y-271500000D03*
X190600000Y-273775000D03*
X191550000Y-273775000D03*
X192500000Y-273775000D03*
%TD*%
D23*
%TO.C,C17*%
X262500000Y-278500000D03*
X265625000Y-278500000D03*
%TD*%
D16*
%TO.C,R12*%
X200600000Y-259450000D03*
X200600000Y-262550000D03*
%TD*%
%TO.C,R11*%
X264100000Y-223350000D03*
X264100000Y-226450000D03*
%TD*%
D24*
%TO.C,C15*%
X206220000Y-287037500D03*
X206220000Y-290162500D03*
%TD*%
D15*
%TO.C,R19*%
X206600000Y-210962500D03*
X209700000Y-210962500D03*
%TD*%
D20*
%TO.C,C23*%
X240300000Y-172100000D03*
X240300000Y-168975000D03*
%TD*%
D25*
%TO.C,Q1*%
X185750000Y-204150000D03*
X187650000Y-204150000D03*
X186700000Y-202275000D03*
%TD*%
D26*
%TO.C,C21*%
X173500000Y-278500000D03*
X170375000Y-278500000D03*
%TD*%
D15*
%TO.C,R31*%
X222450000Y-264200000D03*
X225550000Y-264200000D03*
%TD*%
D27*
%TO.C,D7*%
X181700000Y-209775000D03*
X181700000Y-208025000D03*
%TD*%
D16*
%TO.C,R2*%
X192800000Y-263450000D03*
X192800000Y-266550000D03*
%TD*%
D23*
%TO.C,C18*%
X262500000Y-276000000D03*
X265625000Y-276000000D03*
%TD*%
D15*
%TO.C,R13*%
X227875002Y-252250001D03*
X230975002Y-252250001D03*
%TD*%
%TO.C,R29*%
X165550000Y-204000000D03*
X168650000Y-204000000D03*
%TD*%
D24*
%TO.C,C11*%
X215400000Y-219200000D03*
X215400000Y-222325000D03*
%TD*%
D20*
%TO.C,C6*%
X183900000Y-246562500D03*
X183900000Y-243437500D03*
%TD*%
D28*
%TO.C,D14*%
X225730000Y-289515000D03*
X226830000Y-289515000D03*
X226830000Y-287685000D03*
X225730000Y-287685000D03*
%TD*%
D26*
%TO.C,C2*%
X173500000Y-275500000D03*
X170375000Y-275500000D03*
%TD*%
D17*
%TO.C,D6*%
X184400000Y-267425000D03*
X184400000Y-269175000D03*
%TD*%
D15*
%TO.C,R17*%
X229050000Y-261800000D03*
X232150000Y-261800000D03*
%TD*%
D20*
%TO.C,C8*%
X185300000Y-229800000D03*
X185300000Y-226675000D03*
%TD*%
D26*
%TO.C,C5*%
X202262500Y-247800000D03*
X199137500Y-247800000D03*
%TD*%
D16*
%TO.C,R23*%
X164927500Y-236735000D03*
X164927500Y-239835000D03*
%TD*%
D28*
%TO.C,D13*%
X217706000Y-289515000D03*
X218806000Y-289515000D03*
X218806000Y-287685000D03*
X217706000Y-287685000D03*
%TD*%
D26*
%TO.C,C19*%
X166490000Y-249835000D03*
X163365000Y-249835000D03*
%TD*%
D29*
%TO.C,U10*%
X245300000Y-166550000D03*
X245300000Y-167820000D03*
X245300000Y-169090000D03*
X245300000Y-170360000D03*
X245300000Y-171630000D03*
X245300000Y-172900000D03*
X245300000Y-174170000D03*
X245300000Y-175440000D03*
X245300000Y-176710000D03*
X245300000Y-177980000D03*
X245300000Y-179250000D03*
X245300000Y-180520000D03*
X245300000Y-181790000D03*
X245300000Y-183060000D03*
D30*
X248330000Y-184310000D03*
X249600000Y-184310000D03*
X250870000Y-184310000D03*
X252140000Y-184310000D03*
X253410000Y-184310000D03*
X254680000Y-184310000D03*
X255950000Y-184310000D03*
X257220000Y-184310000D03*
X258490000Y-184310000D03*
X259760000Y-184310000D03*
D29*
X262800000Y-183060000D03*
X262800000Y-181790000D03*
X262800000Y-180520000D03*
X262800000Y-179250000D03*
X262800000Y-177980000D03*
X262800000Y-176710000D03*
X262800000Y-175440000D03*
X262800000Y-174170000D03*
X262800000Y-172900000D03*
X262800000Y-171630000D03*
X262800000Y-170360000D03*
X262800000Y-169090000D03*
X262800000Y-167820000D03*
X262800000Y-166550000D03*
D31*
X251150000Y-172870000D03*
X251150000Y-172870000D03*
X251150000Y-174270000D03*
X251150000Y-175670000D03*
X251150000Y-175670000D03*
X252550000Y-172870000D03*
X252550000Y-174270000D03*
X252550000Y-175670000D03*
X252550000Y-175670000D03*
X253950000Y-172870000D03*
X253950000Y-174270000D03*
X253950000Y-175670000D03*
%TD*%
D16*
%TO.C,R5*%
X153500000Y-275950000D03*
X153500000Y-279050000D03*
%TD*%
D32*
%TO.C,J10*%
X258250000Y-263400000D03*
X258250000Y-264500000D03*
X258250000Y-265600000D03*
X258250000Y-266700000D03*
X258250000Y-267800000D03*
X258250000Y-268900000D03*
X258250000Y-270000000D03*
X258250000Y-271100000D03*
X258250000Y-272200000D03*
D33*
X259550000Y-273400000D03*
D34*
X259300000Y-258800000D03*
D35*
X268850000Y-273400000D03*
X268850000Y-257900000D03*
%TD*%
D15*
%TO.C,R4*%
X227825002Y-235250001D03*
X230925002Y-235250001D03*
%TD*%
D16*
%TO.C,R7*%
X170200000Y-266727500D03*
X170200000Y-269827500D03*
%TD*%
D26*
%TO.C,C22*%
X249862500Y-200000000D03*
X246737500Y-200000000D03*
%TD*%
D36*
%TO.C,U2*%
X178790000Y-265655000D03*
X176500000Y-265655000D03*
D37*
X176500000Y-272345000D03*
D36*
X174210000Y-265655000D03*
%TD*%
D23*
%TO.C,C24*%
X258925000Y-200154898D03*
X262050000Y-200154898D03*
%TD*%
D26*
%TO.C,C4*%
X202262500Y-250400000D03*
X199137500Y-250400000D03*
%TD*%
D38*
%TO.C,D1*%
X186450000Y-291050000D03*
X191450000Y-291050000D03*
%TD*%
D21*
%TO.C,R18*%
X215400000Y-210962500D03*
X212300000Y-210962500D03*
%TD*%
D16*
%TO.C,R24*%
X162427500Y-236735000D03*
X162427500Y-239835000D03*
%TD*%
%TO.C,R25*%
X167427500Y-236735000D03*
X167427500Y-239835000D03*
%TD*%
D39*
%TO.C,R21*%
X178700000Y-205950000D03*
X178700000Y-202850000D03*
%TD*%
D24*
%TO.C,C16*%
X214244000Y-287037500D03*
X214244000Y-290162500D03*
%TD*%
D40*
%TO.C,J5*%
X193500000Y-298000000D03*
D41*
X194500000Y-295300000D03*
X199500000Y-295300000D03*
D40*
X200500000Y-298000000D03*
D42*
X195700000Y-295300000D03*
X196350000Y-295300000D03*
X197000000Y-295300000D03*
X197650000Y-295300000D03*
X198300000Y-295300000D03*
D43*
X193975000Y-298000000D03*
D44*
X196000000Y-298000000D03*
X198000000Y-298000000D03*
D43*
X200025000Y-298000000D03*
%TD*%
D20*
%TO.C,C20*%
X237610000Y-172100000D03*
X237610000Y-168975000D03*
%TD*%
D23*
%TO.C,C3*%
X176500000Y-281500000D03*
X179625000Y-281500000D03*
%TD*%
D28*
%TO.C,D12*%
X209682000Y-289515000D03*
X210782000Y-289515000D03*
X210782000Y-287685000D03*
X209682000Y-287685000D03*
%TD*%
D23*
%TO.C,C13*%
X198037500Y-228100000D03*
X201162500Y-228100000D03*
%TD*%
D45*
%TO.C,SW5*%
X245531300Y-196974998D03*
X245531300Y-189025002D03*
X250031302Y-196974998D03*
X250031302Y-189025002D03*
%TD*%
D16*
%TO.C,R14*%
X152500000Y-236050000D03*
X152500000Y-239150000D03*
%TD*%
D18*
%TO.C,SW9*%
X233425002Y-247749999D03*
X241374998Y-247749999D03*
X233425002Y-252250001D03*
X241374998Y-252250001D03*
%TD*%
D23*
%TO.C,C26*%
X176500000Y-278500000D03*
X179625000Y-278500000D03*
%TD*%
D26*
%TO.C,C12*%
X195962500Y-228100000D03*
X192837500Y-228100000D03*
%TD*%
D39*
%TO.C,R3*%
X190300000Y-266550000D03*
X190300000Y-263450000D03*
%TD*%
D18*
%TO.C,SW6*%
X233425002Y-230749999D03*
X241374998Y-230749999D03*
X233425002Y-235250001D03*
X241374998Y-235250001D03*
%TD*%
D16*
%TO.C,R1*%
X169000000Y-294450000D03*
X169000000Y-297550000D03*
%TD*%
D23*
%TO.C,C25*%
X176500000Y-275500000D03*
X179625000Y-275500000D03*
%TD*%
D24*
%TO.C,C27*%
X261600000Y-223337500D03*
X261600000Y-226462500D03*
%TD*%
D16*
%TO.C,R27*%
X253127101Y-193900000D03*
X253127101Y-197000000D03*
%TD*%
D24*
%TO.C,C28*%
X222268000Y-287037500D03*
X222268000Y-290162500D03*
%TD*%
%TO.C,C14*%
X176000000Y-207537500D03*
X176000000Y-210662500D03*
%TD*%
D38*
%TO.C,D3*%
X165000000Y-290750000D03*
X170000000Y-290750000D03*
%TD*%
D39*
%TO.C,R20*%
X181700000Y-205950000D03*
X181700000Y-202850000D03*
%TD*%
D27*
%TO.C,D2*%
X165400000Y-282875000D03*
X165400000Y-281125000D03*
%TD*%
D18*
%TO.C,SW2*%
X173474998Y-211250001D03*
X165525002Y-211250001D03*
X173474998Y-206749999D03*
X165525002Y-206749999D03*
%TD*%
D20*
%TO.C,C1*%
X188300000Y-274200000D03*
X188300000Y-271075000D03*
%TD*%
D39*
%TO.C,R22*%
X185700000Y-209750000D03*
X185700000Y-206650000D03*
%TD*%
D46*
%TO.C,U9*%
X166832500Y-242360000D03*
X165562500Y-242360000D03*
X164292500Y-242360000D03*
X163022500Y-242360000D03*
X163022500Y-247310000D03*
X164292500Y-247310000D03*
X165562500Y-247310000D03*
X166832500Y-247310000D03*
%TD*%
D15*
%TO.C,R30*%
X214650000Y-266600000D03*
X217750000Y-266600000D03*
%TD*%
D16*
%TO.C,R28*%
X265281303Y-193900000D03*
X265281303Y-197000000D03*
%TD*%
D24*
%TO.C,C10*%
X209000000Y-219200000D03*
X209000000Y-222325000D03*
%TD*%
D20*
%TO.C,C7*%
X186500000Y-246562500D03*
X186500000Y-243437500D03*
%TD*%
D47*
%TO.C,U5*%
X251810000Y-258450000D03*
X250540000Y-258450000D03*
X249270000Y-258450000D03*
X248000000Y-258450000D03*
X246730000Y-258450000D03*
X245460000Y-258450000D03*
X244190000Y-258450000D03*
X244190000Y-263400000D03*
X245460000Y-263400000D03*
X246730000Y-263400000D03*
X248000000Y-263400000D03*
X249270000Y-263400000D03*
X250540000Y-263400000D03*
X251810000Y-263400000D03*
%TD*%
D27*
%TO.C,D8*%
X178700000Y-209775000D03*
X178700000Y-208025000D03*
%TD*%
%TO.C,D5*%
X153500000Y-282875000D03*
X153500000Y-281125000D03*
%TD*%
D16*
%TO.C,R6*%
X165400000Y-275950000D03*
X165400000Y-279050000D03*
%TD*%
D45*
%TO.C,SW7*%
X257685502Y-196974998D03*
X257685502Y-189025002D03*
X262185504Y-196974998D03*
X262185504Y-189025002D03*
%TD*%
M02*
