%TF.GenerationSoftware,KiCad,Pcbnew,9.0.3*%
%TF.CreationDate,2025-12-27T22:41:26+05:30*%
%TF.ProjectId,STM32+ESP32,53544d33-322b-4455-9350-33322e6b6963,rev?*%
%TF.SameCoordinates,Original*%
%TF.FileFunction,Soldermask,Top*%
%TF.FilePolarity,Negative*%
%FSLAX46Y46*%
G04 Gerber Fmt 4.6, Leading zero omitted, Abs format (unit mm)*
G04 Created by KiCad (PCBNEW 9.0.3) date 2025-12-27 22:41:26*
%MOMM*%
%LPD*%
G01*
G04 APERTURE LIST*
G04 Aperture macros list*
%AMRoundRect*
0 Rectangle with rounded corners*
0 $1 Rounding radius*
0 $2 $3 $4 $5 $6 $7 $8 $9 X,Y pos of 4 corners*
0 Add a 4 corners polygon primitive as box body*
4,1,4,$2,$3,$4,$5,$6,$7,$8,$9,$2,$3,0*
0 Add four circle primitives for the rounded corners*
1,1,$1+$1,$2,$3*
1,1,$1+$1,$4,$5*
1,1,$1+$1,$6,$7*
1,1,$1+$1,$8,$9*
0 Add four rect primitives between the rounded corners*
20,1,$1+$1,$2,$3,$4,$5,0*
20,1,$1+$1,$4,$5,$6,$7,0*
20,1,$1+$1,$6,$7,$8,$9,0*
20,1,$1+$1,$8,$9,$2,$3,0*%
%AMFreePoly0*
4,1,23,0.500000,-0.750000,0.000000,-0.750000,0.000000,-0.745722,-0.065263,-0.745722,-0.191342,-0.711940,-0.304381,-0.646677,-0.396677,-0.554381,-0.461940,-0.441342,-0.495722,-0.315263,-0.495722,-0.250000,-0.500000,-0.250000,-0.500000,0.250000,-0.495722,0.250000,-0.495722,0.315263,-0.461940,0.441342,-0.396677,0.554381,-0.304381,0.646677,-0.191342,0.711940,-0.065263,0.745722,0.000000,0.745722,
0.000000,0.750000,0.500000,0.750000,0.500000,-0.750000,0.500000,-0.750000,$1*%
%AMFreePoly1*
4,1,23,0.000000,0.745722,0.065263,0.745722,0.191342,0.711940,0.304381,0.646677,0.396677,0.554381,0.461940,0.441342,0.495722,0.315263,0.495722,0.250000,0.500000,0.250000,0.500000,-0.250000,0.495722,-0.250000,0.495722,-0.315263,0.461940,-0.441342,0.396677,-0.554381,0.304381,-0.646677,0.191342,-0.711940,0.065263,-0.745722,0.000000,-0.745722,0.000000,-0.750000,-0.500000,-0.750000,
-0.500000,0.750000,0.000000,0.750000,0.000000,0.745722,0.000000,0.745722,$1*%
G04 Aperture macros list end*
%ADD10C,0.010000*%
%ADD11O,1.152400X2.352400*%
%ADD12O,1.152400X1.952400*%
%ADD13RoundRect,0.102000X-0.150000X0.800000X-0.150000X-0.800000X0.150000X-0.800000X0.150000X0.800000X0*%
%ADD14RoundRect,0.102000X-0.800000X0.150000X-0.800000X-0.150000X0.800000X-0.150000X0.800000X0.150000X0*%
%ADD15C,17.984000*%
%ADD16RoundRect,0.102000X2.540000X-1.395000X2.540000X1.395000X-2.540000X1.395000X-2.540000X-1.395000X0*%
%ADD17RoundRect,0.250000X-0.400000X-0.625000X0.400000X-0.625000X0.400000X0.625000X-0.400000X0.625000X0*%
%ADD18RoundRect,0.250000X-0.625000X0.400000X-0.625000X-0.400000X0.625000X-0.400000X0.625000X0.400000X0*%
%ADD19RoundRect,0.237500X-0.237500X0.287500X-0.237500X-0.287500X0.237500X-0.287500X0.237500X0.287500X0*%
%ADD20R,1.549400X1.295400*%
%ADD21R,1.700000X1.700000*%
%ADD22C,1.700000*%
%ADD23RoundRect,0.102000X-0.500000X-0.485000X0.500000X-0.485000X0.500000X0.485000X-0.500000X0.485000X0*%
%ADD24RoundRect,0.250000X0.650000X-0.412500X0.650000X0.412500X-0.650000X0.412500X-0.650000X-0.412500X0*%
%ADD25RoundRect,0.250000X0.400000X0.625000X-0.400000X0.625000X-0.400000X-0.625000X0.400000X-0.625000X0*%
%ADD26RoundRect,0.150000X-0.150000X0.512500X-0.150000X-0.512500X0.150000X-0.512500X0.150000X0.512500X0*%
%ADD27C,3.600000*%
%ADD28C,6.400000*%
%ADD29RoundRect,0.250000X-0.412500X-0.650000X0.412500X-0.650000X0.412500X0.650000X-0.412500X0.650000X0*%
%ADD30RoundRect,0.250000X-0.650000X0.412500X-0.650000X-0.412500X0.650000X-0.412500X0.650000X0.412500X0*%
%ADD31FreePoly0,270.000000*%
%ADD32FreePoly1,270.000000*%
%ADD33RoundRect,0.150000X0.150000X-0.587500X0.150000X0.587500X-0.150000X0.587500X-0.150000X-0.587500X0*%
%ADD34RoundRect,0.250000X0.412500X0.650000X-0.412500X0.650000X-0.412500X-0.650000X0.412500X-0.650000X0*%
%ADD35RoundRect,0.237500X0.237500X-0.287500X0.237500X0.287500X-0.237500X0.287500X-0.237500X-0.287500X0*%
%ADD36R,0.700000X0.700000*%
%ADD37RoundRect,0.102000X0.790000X0.790000X-0.790000X0.790000X-0.790000X-0.790000X0.790000X-0.790000X0*%
%ADD38C,1.784000*%
%ADD39C,1.500000*%
%ADD40R,1.500000X0.900000*%
%ADD41R,0.900000X1.500000*%
%ADD42R,0.900000X0.900000*%
%ADD43C,1.000000*%
%ADD44RoundRect,0.102000X0.800000X-0.350000X0.800000X0.350000X-0.800000X0.350000X-0.800000X-0.350000X0*%
%ADD45RoundRect,0.102000X0.900000X-0.600000X0.900000X0.600000X-0.900000X0.600000X-0.900000X-0.600000X0*%
%ADD46RoundRect,0.102000X0.750000X-0.800000X0.750000X0.800000X-0.750000X0.800000X-0.750000X-0.800000X0*%
%ADD47RoundRect,0.102000X1.100000X-0.600000X1.100000X0.600000X-1.100000X0.600000X-1.100000X-0.600000X0*%
%ADD48RoundRect,0.085050X-0.481950X0.671950X-0.481950X-0.671950X0.481950X-0.671950X0.481950X0.671950X0*%
%ADD49RoundRect,0.113550X-1.608450X0.643450X-1.608450X-0.643450X1.608450X-0.643450X1.608450X0.643450X0*%
%ADD50RoundRect,0.250000X-1.500000X-0.650000X1.500000X-0.650000X1.500000X0.650000X-1.500000X0.650000X0*%
%ADD51RoundRect,0.250000X0.625000X-0.400000X0.625000X0.400000X-0.625000X0.400000X-0.625000X-0.400000X0*%
%ADD52RoundRect,0.100000X-0.100000X-0.575000X0.100000X-0.575000X0.100000X0.575000X-0.100000X0.575000X0*%
%ADD53O,0.890000X1.550000*%
%ADD54RoundRect,0.250000X-0.475000X-0.525000X0.475000X-0.525000X0.475000X0.525000X-0.475000X0.525000X0*%
%ADD55O,1.250000X0.950000*%
%ADD56RoundRect,0.250000X-0.500000X-0.525000X0.500000X-0.525000X0.500000X0.525000X-0.500000X0.525000X0*%
%ADD57R,1.295400X1.549400*%
%ADD58C,1.114000*%
%ADD59RoundRect,0.250000X-1.050000X1.050000X-1.050000X-1.050000X1.050000X-1.050000X1.050000X1.050000X0*%
%ADD60C,2.600000*%
%ADD61RoundRect,0.150000X-0.150000X0.825000X-0.150000X-0.825000X0.150000X-0.825000X0.150000X0.825000X0*%
%ADD62RoundRect,0.201000X-0.201000X0.886000X-0.201000X-0.886000X0.201000X-0.886000X0.201000X0.886000X0*%
%ADD63RoundRect,0.250000X0.600000X0.600000X-0.600000X0.600000X-0.600000X-0.600000X0.600000X-0.600000X0*%
%ADD64R,2.000000X2.000000*%
%ADD65C,2.000000*%
%ADD66C,1.440000*%
G04 APERTURE END LIST*
D10*
%TO.C,J1*%
X173158500Y-294188500D02*
X172441500Y-294188500D01*
X172441500Y-292911500D01*
X173158500Y-292911500D01*
X173158500Y-294188500D01*
G36*
X173158500Y-294188500D02*
G01*
X172441500Y-294188500D01*
X172441500Y-292911500D01*
X173158500Y-292911500D01*
X173158500Y-294188500D01*
G37*
X173958500Y-294188500D02*
X173241500Y-294188500D01*
X173241500Y-292911500D01*
X173958500Y-292911500D01*
X173958500Y-294188500D01*
G36*
X173958500Y-294188500D02*
G01*
X173241500Y-294188500D01*
X173241500Y-292911500D01*
X173958500Y-292911500D01*
X173958500Y-294188500D01*
G37*
X174462500Y-294188500D02*
X174037500Y-294188500D01*
X174037500Y-292911500D01*
X174462500Y-292911500D01*
X174462500Y-294188500D01*
G36*
X174462500Y-294188500D02*
G01*
X174037500Y-294188500D01*
X174037500Y-292911500D01*
X174462500Y-292911500D01*
X174462500Y-294188500D01*
G37*
X174962500Y-294188500D02*
X174537500Y-294188500D01*
X174537500Y-292911500D01*
X174962500Y-292911500D01*
X174962500Y-294188500D01*
G36*
X174962500Y-294188500D02*
G01*
X174537500Y-294188500D01*
X174537500Y-292911500D01*
X174962500Y-292911500D01*
X174962500Y-294188500D01*
G37*
X175462500Y-294188500D02*
X175037500Y-294188500D01*
X175037500Y-292911500D01*
X175462500Y-292911500D01*
X175462500Y-294188500D01*
G36*
X175462500Y-294188500D02*
G01*
X175037500Y-294188500D01*
X175037500Y-292911500D01*
X175462500Y-292911500D01*
X175462500Y-294188500D01*
G37*
X175962500Y-294188500D02*
X175537500Y-294188500D01*
X175537500Y-292911500D01*
X175962500Y-292911500D01*
X175962500Y-294188500D01*
G36*
X175962500Y-294188500D02*
G01*
X175537500Y-294188500D01*
X175537500Y-292911500D01*
X175962500Y-292911500D01*
X175962500Y-294188500D01*
G37*
X176462500Y-294188500D02*
X176037500Y-294188500D01*
X176037500Y-292911500D01*
X176462500Y-292911500D01*
X176462500Y-294188500D01*
G36*
X176462500Y-294188500D02*
G01*
X176037500Y-294188500D01*
X176037500Y-292911500D01*
X176462500Y-292911500D01*
X176462500Y-294188500D01*
G37*
X176962500Y-294188500D02*
X176537500Y-294188500D01*
X176537500Y-292911500D01*
X176962500Y-292911500D01*
X176962500Y-294188500D01*
G36*
X176962500Y-294188500D02*
G01*
X176537500Y-294188500D01*
X176537500Y-292911500D01*
X176962500Y-292911500D01*
X176962500Y-294188500D01*
G37*
X177462500Y-294188500D02*
X177037500Y-294188500D01*
X177037500Y-292911500D01*
X177462500Y-292911500D01*
X177462500Y-294188500D01*
G36*
X177462500Y-294188500D02*
G01*
X177037500Y-294188500D01*
X177037500Y-292911500D01*
X177462500Y-292911500D01*
X177462500Y-294188500D01*
G37*
X177962500Y-294188500D02*
X177537500Y-294188500D01*
X177537500Y-292911500D01*
X177962500Y-292911500D01*
X177962500Y-294188500D01*
G36*
X177962500Y-294188500D02*
G01*
X177537500Y-294188500D01*
X177537500Y-292911500D01*
X177962500Y-292911500D01*
X177962500Y-294188500D01*
G37*
X178758500Y-294188500D02*
X178041500Y-294188500D01*
X178041500Y-292911500D01*
X178758500Y-292911500D01*
X178758500Y-294188500D01*
G36*
X178758500Y-294188500D02*
G01*
X178041500Y-294188500D01*
X178041500Y-292911500D01*
X178758500Y-292911500D01*
X178758500Y-294188500D01*
G37*
X179558500Y-294188500D02*
X178841500Y-294188500D01*
X178841500Y-292911500D01*
X179558500Y-292911500D01*
X179558500Y-294188500D01*
G36*
X179558500Y-294188500D02*
G01*
X178841500Y-294188500D01*
X178841500Y-292911500D01*
X179558500Y-292911500D01*
X179558500Y-294188500D01*
G37*
%TO.C,JP2*%
G36*
X262800000Y-204500000D02*
G01*
X261300000Y-204500000D01*
X261300000Y-204800000D01*
X262800000Y-204800000D01*
X262800000Y-204500000D01*
G37*
%TO.C,JP1*%
G36*
X250550000Y-204500000D02*
G01*
X249050000Y-204500000D01*
X249050000Y-204800000D01*
X250550000Y-204800000D01*
X250550000Y-204500000D01*
G37*
%TD*%
D11*
%TO.C,J1*%
X171680000Y-298125000D03*
X180320000Y-298125000D03*
D12*
X171680000Y-294125000D03*
X180320000Y-294125000D03*
%TD*%
D13*
%TO.C,U1*%
X199250000Y-233900000D03*
X198750000Y-233900000D03*
X198250000Y-233900000D03*
X197750000Y-233900000D03*
X197250000Y-233900000D03*
X196750000Y-233900000D03*
X196250000Y-233900000D03*
X195750000Y-233900000D03*
X195250000Y-233900000D03*
X194750000Y-233900000D03*
X194250000Y-233900000D03*
X193750000Y-233900000D03*
X193250000Y-233900000D03*
X192750000Y-233900000D03*
X192250000Y-233900000D03*
X191750000Y-233900000D03*
D14*
X189900000Y-235750000D03*
X189900000Y-236250000D03*
X189900000Y-236750000D03*
X189900000Y-237250000D03*
X189900000Y-237750000D03*
X189900000Y-238250000D03*
X189900000Y-238750000D03*
X189900000Y-239250000D03*
X189900000Y-239750000D03*
X189900000Y-240250000D03*
X189900000Y-240750000D03*
X189900000Y-241250000D03*
X189900000Y-241750000D03*
X189900000Y-242250000D03*
X189900000Y-242750000D03*
X189900000Y-243250000D03*
D13*
X191750000Y-245100000D03*
X192250000Y-245100000D03*
X192750000Y-245100000D03*
X193250000Y-245100000D03*
X193750000Y-245100000D03*
X194250000Y-245100000D03*
X194750000Y-245100000D03*
X195250000Y-245100000D03*
X195750000Y-245100000D03*
X196250000Y-245100000D03*
X196750000Y-245100000D03*
X197250000Y-245100000D03*
X197750000Y-245100000D03*
X198250000Y-245100000D03*
X198750000Y-245100000D03*
X199250000Y-245100000D03*
D14*
X201100000Y-243250000D03*
X201100000Y-242750000D03*
X201100000Y-242250000D03*
X201100000Y-241750000D03*
X201100000Y-241250000D03*
X201100000Y-240750000D03*
X201100000Y-240250000D03*
X201100000Y-239750000D03*
X201100000Y-239250000D03*
X201100000Y-238750000D03*
X201100000Y-238250000D03*
X201100000Y-237750000D03*
X201100000Y-237250000D03*
X201100000Y-236750000D03*
X201100000Y-236250000D03*
X201100000Y-235750000D03*
%TD*%
D15*
%TO.C,BT1*%
X264100000Y-240485000D03*
D16*
X264100000Y-251470000D03*
X264100000Y-229500000D03*
%TD*%
D17*
%TO.C,R26*%
X163377500Y-252335000D03*
X166477500Y-252335000D03*
%TD*%
D18*
%TO.C,R15*%
X152550000Y-252450000D03*
X152550000Y-255550000D03*
%TD*%
D19*
%TO.C,D4*%
X168000000Y-267425000D03*
X168000000Y-269175000D03*
%TD*%
D18*
%TO.C,R8*%
X182200000Y-266727500D03*
X182200000Y-269827500D03*
%TD*%
D20*
%TO.C,SW8*%
X233425002Y-239249999D03*
X241374998Y-239249999D03*
X233425002Y-243750001D03*
X241374998Y-243750001D03*
%TD*%
D21*
%TO.C,J22*%
X238950000Y-274225000D03*
D22*
X241490000Y-274225000D03*
X244030000Y-274225000D03*
X246570000Y-274225000D03*
%TD*%
D23*
%TO.C,FL1*%
X181830000Y-229800000D03*
X183300000Y-229800000D03*
%TD*%
D17*
%TO.C,R10*%
X227875002Y-243750001D03*
X230975002Y-243750001D03*
%TD*%
D21*
%TO.C,J6*%
X156960000Y-275900000D03*
D22*
X159500000Y-275900000D03*
X162040000Y-275900000D03*
%TD*%
D24*
%TO.C,C9*%
X187800000Y-229800000D03*
X187800000Y-226675000D03*
%TD*%
D21*
%TO.C,J2*%
X157000000Y-272000000D03*
D22*
X159540000Y-272000000D03*
X162080000Y-272000000D03*
%TD*%
D21*
%TO.C,J8*%
X214550000Y-215525000D03*
D22*
X212010000Y-215525000D03*
X209470000Y-215525000D03*
X206930000Y-215525000D03*
X204390000Y-215525000D03*
X201850000Y-215525000D03*
X199310000Y-215525000D03*
X196770000Y-215525000D03*
X194230000Y-215525000D03*
X191690000Y-215525000D03*
X189150000Y-215525000D03*
X186610000Y-215525000D03*
X184070000Y-215525000D03*
X181530000Y-215525000D03*
X178990000Y-215525000D03*
X176450000Y-215525000D03*
%TD*%
D25*
%TO.C,R16*%
X255350000Y-269900000D03*
X252250000Y-269900000D03*
%TD*%
D18*
%TO.C,R9*%
X183000000Y-294450000D03*
X183000000Y-297550000D03*
%TD*%
D26*
%TO.C,U3*%
X192500000Y-271500000D03*
X191550000Y-271500000D03*
X190600000Y-271500000D03*
X190600000Y-273775000D03*
X191550000Y-273775000D03*
X192500000Y-273775000D03*
%TD*%
D27*
%TO.C,H2*%
X154500000Y-295500000D03*
D28*
X154500000Y-295500000D03*
%TD*%
D29*
%TO.C,C17*%
X262500000Y-278500000D03*
X265625000Y-278500000D03*
%TD*%
D18*
%TO.C,R12*%
X200600000Y-259450000D03*
X200600000Y-262550000D03*
%TD*%
%TO.C,R11*%
X264100000Y-223350000D03*
X264100000Y-226450000D03*
%TD*%
D30*
%TO.C,C15*%
X206220000Y-287037500D03*
X206220000Y-290162500D03*
%TD*%
D17*
%TO.C,R19*%
X206600000Y-210962500D03*
X209700000Y-210962500D03*
%TD*%
D31*
%TO.C,JP2*%
X262050000Y-204000000D03*
D32*
X262050000Y-205300000D03*
%TD*%
D21*
%TO.C,J14*%
X167225000Y-220750000D03*
D22*
X167225000Y-223290000D03*
%TD*%
D24*
%TO.C,C23*%
X240300000Y-172100000D03*
X240300000Y-168975000D03*
%TD*%
D33*
%TO.C,Q1*%
X185750000Y-204150000D03*
X187650000Y-204150000D03*
X186700000Y-202275000D03*
%TD*%
D34*
%TO.C,C21*%
X173500000Y-278500000D03*
X170375000Y-278500000D03*
%TD*%
D17*
%TO.C,R31*%
X222450000Y-264200000D03*
X225550000Y-264200000D03*
%TD*%
D35*
%TO.C,D7*%
X181700000Y-209775000D03*
X181700000Y-208025000D03*
%TD*%
D18*
%TO.C,R2*%
X192800000Y-263450000D03*
X192800000Y-266550000D03*
%TD*%
D29*
%TO.C,C18*%
X262500000Y-276000000D03*
X265625000Y-276000000D03*
%TD*%
D17*
%TO.C,R13*%
X227875002Y-252250001D03*
X230975002Y-252250001D03*
%TD*%
%TO.C,R29*%
X165550000Y-204000000D03*
X168650000Y-204000000D03*
%TD*%
D30*
%TO.C,C11*%
X215400000Y-219200000D03*
X215400000Y-222325000D03*
%TD*%
D21*
%TO.C,J18*%
X156300000Y-230365000D03*
D22*
X156300000Y-227825000D03*
X156300000Y-225285000D03*
X156300000Y-222745000D03*
%TD*%
D24*
%TO.C,C6*%
X183900000Y-246562500D03*
X183900000Y-243437500D03*
%TD*%
D36*
%TO.C,D14*%
X225730000Y-289515000D03*
X226830000Y-289515000D03*
X226830000Y-287685000D03*
X225730000Y-287685000D03*
%TD*%
D34*
%TO.C,C2*%
X173500000Y-275500000D03*
X170375000Y-275500000D03*
%TD*%
D31*
%TO.C,JP1*%
X249800000Y-204000000D03*
D32*
X249800000Y-205300000D03*
%TD*%
D19*
%TO.C,D6*%
X184400000Y-267425000D03*
X184400000Y-269175000D03*
%TD*%
D37*
%TO.C,S1*%
X212270000Y-200590000D03*
D38*
X212270000Y-208210000D03*
X209730000Y-200590000D03*
X209730000Y-208210000D03*
%TD*%
D17*
%TO.C,R17*%
X229050000Y-261800000D03*
X232150000Y-261800000D03*
%TD*%
D24*
%TO.C,C8*%
X185300000Y-229800000D03*
X185300000Y-226675000D03*
%TD*%
D34*
%TO.C,C5*%
X202262500Y-247800000D03*
X199137500Y-247800000D03*
%TD*%
D39*
%TO.C,Y2*%
X194560000Y-223900000D03*
X199440000Y-223900000D03*
%TD*%
D18*
%TO.C,R23*%
X164927500Y-236735000D03*
X164927500Y-239835000D03*
%TD*%
D36*
%TO.C,D13*%
X217706000Y-289515000D03*
X218806000Y-289515000D03*
X218806000Y-287685000D03*
X217706000Y-287685000D03*
%TD*%
D34*
%TO.C,C19*%
X166490000Y-249835000D03*
X163365000Y-249835000D03*
%TD*%
D40*
%TO.C,U10*%
X245300000Y-166550000D03*
X245300000Y-167820000D03*
X245300000Y-169090000D03*
X245300000Y-170360000D03*
X245300000Y-171630000D03*
X245300000Y-172900000D03*
X245300000Y-174170000D03*
X245300000Y-175440000D03*
X245300000Y-176710000D03*
X245300000Y-177980000D03*
X245300000Y-179250000D03*
X245300000Y-180520000D03*
X245300000Y-181790000D03*
X245300000Y-183060000D03*
D41*
X248330000Y-184310000D03*
X249600000Y-184310000D03*
X250870000Y-184310000D03*
X252140000Y-184310000D03*
X253410000Y-184310000D03*
X254680000Y-184310000D03*
X255950000Y-184310000D03*
X257220000Y-184310000D03*
X258490000Y-184310000D03*
X259760000Y-184310000D03*
D40*
X262800000Y-183060000D03*
X262800000Y-181790000D03*
X262800000Y-180520000D03*
X262800000Y-179250000D03*
X262800000Y-177980000D03*
X262800000Y-176710000D03*
X262800000Y-175440000D03*
X262800000Y-174170000D03*
X262800000Y-172900000D03*
X262800000Y-171630000D03*
X262800000Y-170360000D03*
X262800000Y-169090000D03*
X262800000Y-167820000D03*
X262800000Y-166550000D03*
D42*
X251150000Y-172870000D03*
X251150000Y-172870000D03*
X251150000Y-174270000D03*
X251150000Y-175670000D03*
X251150000Y-175670000D03*
X252550000Y-172870000D03*
X252550000Y-174270000D03*
X252550000Y-175670000D03*
X252550000Y-175670000D03*
X253950000Y-172870000D03*
X253950000Y-174270000D03*
X253950000Y-175670000D03*
%TD*%
D18*
%TO.C,R5*%
X153500000Y-275950000D03*
X153500000Y-279050000D03*
%TD*%
D43*
%TO.C,J10*%
X269250000Y-270600000D03*
X269250000Y-262600000D03*
D44*
X258250000Y-263400000D03*
X258250000Y-264500000D03*
X258250000Y-265600000D03*
X258250000Y-266700000D03*
X258250000Y-267800000D03*
X258250000Y-268900000D03*
X258250000Y-270000000D03*
X258250000Y-271100000D03*
X258250000Y-272200000D03*
D45*
X259550000Y-273400000D03*
D46*
X259300000Y-258800000D03*
D47*
X268850000Y-273400000D03*
X268850000Y-257900000D03*
%TD*%
D17*
%TO.C,R4*%
X227825002Y-235250001D03*
X230925002Y-235250001D03*
%TD*%
D18*
%TO.C,R7*%
X170200000Y-266727500D03*
X170200000Y-269827500D03*
%TD*%
D34*
%TO.C,C22*%
X249862500Y-200000000D03*
X246737500Y-200000000D03*
%TD*%
D48*
%TO.C,U2*%
X178790000Y-265655000D03*
X176500000Y-265655000D03*
D49*
X176500000Y-272345000D03*
D48*
X174210000Y-265655000D03*
%TD*%
D29*
%TO.C,C24*%
X258925000Y-200154898D03*
X262050000Y-200154898D03*
%TD*%
D34*
%TO.C,C4*%
X202262500Y-250400000D03*
X199137500Y-250400000D03*
%TD*%
D50*
%TO.C,D1*%
X186450000Y-291050000D03*
X191450000Y-291050000D03*
%TD*%
D21*
%TO.C,J19*%
X269700000Y-184590000D03*
D22*
X269700000Y-182050000D03*
%TD*%
D25*
%TO.C,R18*%
X215400000Y-210962500D03*
X212300000Y-210962500D03*
%TD*%
D27*
%TO.C,H4*%
X270500000Y-169500000D03*
D28*
X270500000Y-169500000D03*
%TD*%
D18*
%TO.C,R24*%
X162427500Y-236735000D03*
X162427500Y-239835000D03*
%TD*%
%TO.C,R25*%
X167427500Y-236735000D03*
X167427500Y-239835000D03*
%TD*%
D51*
%TO.C,R21*%
X178700000Y-205950000D03*
X178700000Y-202850000D03*
%TD*%
D21*
%TO.C,J20*%
X246675000Y-269400000D03*
D22*
X244135000Y-269400000D03*
%TD*%
D30*
%TO.C,C16*%
X214244000Y-287037500D03*
X214244000Y-290162500D03*
%TD*%
D52*
%TO.C,J5*%
X195700000Y-295300000D03*
X196350000Y-295300000D03*
X197000000Y-295300000D03*
X197650000Y-295300000D03*
X198300000Y-295300000D03*
D53*
X193500000Y-298000000D03*
D54*
X193975000Y-298000000D03*
D55*
X194500000Y-295300000D03*
D56*
X196000000Y-298000000D03*
X198000000Y-298000000D03*
D55*
X199500000Y-295300000D03*
D54*
X200025000Y-298000000D03*
D53*
X200500000Y-298000000D03*
%TD*%
D24*
%TO.C,C20*%
X237610000Y-172100000D03*
X237610000Y-168975000D03*
%TD*%
D29*
%TO.C,C3*%
X176500000Y-281500000D03*
X179625000Y-281500000D03*
%TD*%
D21*
%TO.C,J13*%
X237375000Y-227425000D03*
D22*
X237375000Y-224885000D03*
X237375000Y-222345000D03*
X237375000Y-219805000D03*
X237375000Y-217265000D03*
X237375000Y-214725000D03*
%TD*%
D36*
%TO.C,D12*%
X209682000Y-289515000D03*
X210782000Y-289515000D03*
X210782000Y-287685000D03*
X209682000Y-287685000D03*
%TD*%
D29*
%TO.C,C13*%
X198037500Y-228100000D03*
X201162500Y-228100000D03*
%TD*%
D57*
%TO.C,SW5*%
X245531300Y-196974998D03*
X245531300Y-189025002D03*
X250031302Y-196974998D03*
X250031302Y-189025002D03*
%TD*%
D27*
%TO.C,H3*%
X270500000Y-295500000D03*
D28*
X270500000Y-295500000D03*
%TD*%
D18*
%TO.C,R14*%
X152500000Y-236050000D03*
X152500000Y-239150000D03*
%TD*%
D21*
%TO.C,J23*%
X268600000Y-204680000D03*
D22*
X268600000Y-202140000D03*
X268600000Y-199600000D03*
X268600000Y-197060000D03*
%TD*%
D20*
%TO.C,SW9*%
X233425002Y-247749999D03*
X241374998Y-247749999D03*
X233425002Y-252250001D03*
X241374998Y-252250001D03*
%TD*%
D58*
%TO.C,Y1*%
X211565000Y-219127500D03*
X212835000Y-219127500D03*
%TD*%
D29*
%TO.C,C26*%
X176500000Y-278500000D03*
X179625000Y-278500000D03*
%TD*%
D34*
%TO.C,C12*%
X195962500Y-228100000D03*
X192837500Y-228100000D03*
%TD*%
D51*
%TO.C,R3*%
X190300000Y-266550000D03*
X190300000Y-263450000D03*
%TD*%
D20*
%TO.C,SW6*%
X233425002Y-230749999D03*
X241374998Y-230749999D03*
X233425002Y-235250001D03*
X241374998Y-235250001D03*
%TD*%
D21*
%TO.C,J15*%
X161300000Y-230440000D03*
D22*
X161300000Y-227900000D03*
X161300000Y-225360000D03*
X161300000Y-222820000D03*
%TD*%
D59*
%TO.C,J16*%
X155127500Y-243355000D03*
D60*
X155127500Y-248435000D03*
%TD*%
D18*
%TO.C,R1*%
X169000000Y-294450000D03*
X169000000Y-297550000D03*
%TD*%
D29*
%TO.C,C25*%
X176500000Y-275500000D03*
X179625000Y-275500000D03*
%TD*%
D30*
%TO.C,C27*%
X261600000Y-223337500D03*
X261600000Y-226462500D03*
%TD*%
D18*
%TO.C,R27*%
X253127101Y-193900000D03*
X253127101Y-197000000D03*
%TD*%
D30*
%TO.C,C28*%
X222268000Y-287037500D03*
X222268000Y-290162500D03*
%TD*%
%TO.C,C14*%
X176000000Y-207537500D03*
X176000000Y-210662500D03*
%TD*%
D21*
%TO.C,J3*%
X157000000Y-264200000D03*
D22*
X159540000Y-264200000D03*
X162080000Y-264200000D03*
%TD*%
D50*
%TO.C,D3*%
X165000000Y-290750000D03*
X170000000Y-290750000D03*
%TD*%
D51*
%TO.C,R20*%
X181700000Y-205950000D03*
X181700000Y-202850000D03*
%TD*%
D35*
%TO.C,D2*%
X165400000Y-282875000D03*
X165400000Y-281125000D03*
%TD*%
D20*
%TO.C,SW2*%
X173474998Y-211250001D03*
X165525002Y-211250001D03*
X173474998Y-206749999D03*
X165525002Y-206749999D03*
%TD*%
D24*
%TO.C,C1*%
X188300000Y-274200000D03*
X188300000Y-271075000D03*
%TD*%
D51*
%TO.C,R22*%
X185700000Y-209750000D03*
X185700000Y-206650000D03*
%TD*%
D61*
%TO.C,U9*%
X166832500Y-242360000D03*
X165562500Y-242360000D03*
X164292500Y-242360000D03*
X163022500Y-242360000D03*
X163022500Y-247310000D03*
X164292500Y-247310000D03*
X165562500Y-247310000D03*
X166832500Y-247310000D03*
%TD*%
D17*
%TO.C,R30*%
X214650000Y-266600000D03*
X217750000Y-266600000D03*
%TD*%
D18*
%TO.C,R28*%
X265281303Y-193900000D03*
X265281303Y-197000000D03*
%TD*%
D30*
%TO.C,C10*%
X209000000Y-219200000D03*
X209000000Y-222325000D03*
%TD*%
D21*
%TO.C,J12*%
X174800000Y-247700000D03*
D22*
X174800000Y-250240000D03*
%TD*%
D24*
%TO.C,C7*%
X186500000Y-246562500D03*
X186500000Y-243437500D03*
%TD*%
D21*
%TO.C,J11*%
X226600000Y-221425000D03*
D22*
X226600000Y-218885000D03*
X226600000Y-216345000D03*
%TD*%
D62*
%TO.C,U5*%
X251810000Y-258450000D03*
X250540000Y-258450000D03*
X249270000Y-258450000D03*
X248000000Y-258450000D03*
X246730000Y-258450000D03*
X245460000Y-258450000D03*
X244190000Y-258450000D03*
X244190000Y-263400000D03*
X245460000Y-263400000D03*
X246730000Y-263400000D03*
X248000000Y-263400000D03*
X249270000Y-263400000D03*
X250540000Y-263400000D03*
X251810000Y-263400000D03*
%TD*%
D21*
%TO.C,J7*%
X171090000Y-220950000D03*
D22*
X171090000Y-223490000D03*
X171090000Y-226030000D03*
X171090000Y-228570000D03*
X171090000Y-231110000D03*
X171090000Y-233650000D03*
X171090000Y-236190000D03*
X171090000Y-238730000D03*
X171090000Y-241270000D03*
X171090000Y-243810000D03*
X171090000Y-246350000D03*
X171090000Y-248890000D03*
X171090000Y-251430000D03*
X171090000Y-253970000D03*
X171090000Y-256510000D03*
X171090000Y-259050000D03*
%TD*%
D63*
%TO.C,J17*%
X157440000Y-213840000D03*
D22*
X154900000Y-213840000D03*
X157440000Y-211300000D03*
X154900000Y-211300000D03*
X157440000Y-208760000D03*
X154900000Y-208760000D03*
X157440000Y-206220000D03*
X154900000Y-206220000D03*
X157440000Y-203680000D03*
X154900000Y-203680000D03*
X157440000Y-201140000D03*
X154900000Y-201140000D03*
X157440000Y-198600000D03*
X154900000Y-198600000D03*
X157440000Y-196060000D03*
X154900000Y-196060000D03*
X157440000Y-193520000D03*
X154900000Y-193520000D03*
X157440000Y-190980000D03*
X154900000Y-190980000D03*
%TD*%
D35*
%TO.C,D8*%
X178700000Y-209775000D03*
X178700000Y-208025000D03*
%TD*%
D21*
%TO.C,J21*%
X166000000Y-177850000D03*
D22*
X166000000Y-175310000D03*
X166000000Y-172770000D03*
X166000000Y-170230000D03*
%TD*%
D21*
%TO.C,J4*%
X157000000Y-268100000D03*
D22*
X159540000Y-268100000D03*
X162080000Y-268100000D03*
%TD*%
D21*
%TO.C,J9*%
X219115000Y-220950000D03*
D22*
X219115000Y-223490000D03*
X219115000Y-226030000D03*
X219115000Y-228570000D03*
X219115000Y-231110000D03*
X219115000Y-233650000D03*
X219115000Y-236190000D03*
X219115000Y-238730000D03*
X219115000Y-241270000D03*
X219115000Y-243810000D03*
X219115000Y-246350000D03*
X219115000Y-248890000D03*
X219115000Y-251430000D03*
X219115000Y-253970000D03*
X219115000Y-256510000D03*
X219115000Y-259050000D03*
%TD*%
D35*
%TO.C,D5*%
X153500000Y-282875000D03*
X153500000Y-281125000D03*
%TD*%
D27*
%TO.C,H1*%
X154500000Y-169500000D03*
D28*
X154500000Y-169500000D03*
%TD*%
D18*
%TO.C,R6*%
X165400000Y-275950000D03*
X165400000Y-279050000D03*
%TD*%
D64*
%TO.C,BZ1*%
X201300000Y-205500000D03*
D65*
X193700000Y-205500000D03*
%TD*%
D66*
%TO.C,RV2*%
X231590000Y-221440000D03*
X231590000Y-218900000D03*
X231590000Y-216360000D03*
%TD*%
D57*
%TO.C,SW7*%
X257685502Y-196974998D03*
X257685502Y-189025002D03*
X262185504Y-196974998D03*
X262185504Y-189025002D03*
%TD*%
M02*
