M48
; DRILL file {KiCad 9.0.3} date 2025-12-27T22:39:13+0530
; FORMAT={-:-/ absolute / metric / decimal}
; #@! TF.CreationDate,2025-12-27T22:39:13+05:30
; #@! TF.GenerationSoftware,Kicad,Pcbnew,9.0.3
; #@! TF.FileFunction,Plated,1,2,PTH
FMAT,2
METRIC
; #@! TA.AperFunction,Plated,PTH,ViaDrill
T1C0.300
; #@! TA.AperFunction,Plated,PTH,ComponentDrill
T2C0.500
; #@! TA.AperFunction,Plated,PTH,ComponentDrill
T3C0.550
; #@! TA.AperFunction,Plated,PTH,ComponentDrill
T4C0.560
; #@! TA.AperFunction,Plated,PTH,ComponentDrill
T5C0.600
; #@! TA.AperFunction,Plated,PTH,ComponentDrill
T6C0.800
; #@! TA.AperFunction,Plated,PTH,ComponentDrill
T7C1.000
; #@! TA.AperFunction,Plated,PTH,ComponentDrill
T8C1.300
; #@! TA.AperFunction,Plated,PTH,ComponentDrill
T9C3.200
%
G90
G05
T1
X152.55Y-257.8
X153.5Y-284.9
X154.15Y-234.65
X156.25Y-234.65
X157.44Y-215.74
X159.5Y-236.735
X161.1Y-207.04
X161.5Y-250.5
X165.4Y-284.9
X165.525Y-209.475
X166.832Y-243.732
X166.975Y-297.6
X167.0Y-266.4
X168.95Y-280.3
X172.8Y-295.0
X173.5Y-281.0
X173.6Y-295.1
X173.8Y-238.73
X174.751Y-237.649
X175.875Y-237.025
X176.075Y-289.927
X176.5Y-283.4
X176.925Y-289.927
X177.1Y-222.8
X177.4Y-237.175
X177.6Y-254.2
X178.4Y-295.0
X178.7Y-201.15
X178.8Y-254.2
X179.2Y-295.0
X179.625Y-283.3
X180.0Y-254.2
X181.2Y-254.2
X181.7Y-201.1
X182.0Y-244.3
X182.2Y-264.4
X183.9Y-240.0
X184.1Y-241.5
X184.359Y-225.057
X185.0Y-236.6
X185.05Y-297.55
X185.4Y-240.9
X185.5Y-266.3
X186.2Y-271.1
X186.7Y-242.1
X186.7Y-275.9
X186.9Y-239.7
X187.65Y-206.85
X187.7Y-250.0
X187.8Y-239.725
X188.147Y-257.441
X188.2Y-256.4
X188.2Y-258.4
X188.2Y-259.4
X188.8Y-250.1
X189.9Y-250.1
X190.464Y-283.131
X190.5Y-269.5
X190.9Y-250.1
X191.0Y-257.5
X191.125Y-279.971
X191.35Y-236.75
X191.5Y-235.8
X191.697Y-241.514
X191.8Y-242.8
X191.975Y-279.971
X192.225Y-238.8
X192.5Y-259.0
X192.5Y-269.5
X192.794Y-282.888
X192.8Y-243.6
X193.1Y-226.2
X193.1Y-242.2
X193.6Y-237.5
X193.825Y-247.0
X193.9Y-272.6
X194.3Y-242.695
X194.3Y-243.7
X194.8Y-237.2
X195.3Y-236.0
X195.6Y-249.5
X195.85Y-288.5
X195.95Y-248.6
X196.0Y-296.7
X196.507Y-232.307
X196.6Y-250.8
X197.391Y-243.322
X197.4Y-235.6
X197.5Y-232.3
X197.5Y-288.5
X197.9Y-241.1
X198.0Y-296.7
X198.522Y-243.222
X198.6Y-235.6
X198.7Y-293.4
X199.575Y-240.175
X199.6Y-241.179
X199.6Y-242.675
X199.811Y-235.342
X199.9Y-252.5
X200.6Y-258.1
X202.262Y-252.462
X202.4Y-230.5
X202.907Y-226.6
X203.3Y-233.4
X203.6Y-249.5
X203.862Y-230.137
X203.919Y-241.881
X204.337Y-210.962
X204.375Y-228.125
X204.5Y-243.275
X204.8Y-232.2
X204.9Y-249.5
X205.313Y-228.208
X206.22Y-285.32
X206.282Y-291.9
X206.568Y-245.532
X207.0Y-233.2
X207.8Y-236.475
X208.7Y-236.8
X209.7Y-286.4
X211.1Y-233.2
X211.627Y-290.327
X211.841Y-286.4
X212.2Y-222.325
X212.6Y-246.5
X212.6Y-248.1
X212.8Y-266.6
X213.14Y-225.75
X214.6Y-217.3
X215.6Y-236.3
X216.059Y-290.2
X217.5Y-286.4
X217.6Y-230.6
X217.8Y-208.2
X218.782Y-290.785
X218.938Y-210.962
X219.4Y-209.2
X219.941Y-286.4
X220.5Y-214.7
X220.8Y-264.2
X223.3Y-228.2
X223.6Y-261.8
X224.059Y-290.1
X224.125Y-221.425
X224.4Y-286.4
X226.8Y-290.767
X227.3Y-214.0
X231.59Y-214.9
X231.59Y-222.9
X235.175Y-168.975
X235.4Y-172.1
X239.2Y-260.8
X239.9Y-227.4
X243.9Y-247.85
X243.975Y-239.35
X244.0Y-230.8
X244.2Y-260.15
X245.5Y-229.5
X246.73Y-265.4
X246.789Y-202.0
X248.0Y-256.4
X248.33Y-182.57
X248.4Y-267.0
X248.5Y-167.8
X249.6Y-174.2
X250.28Y-172.0
X250.31Y-176.51
X250.54Y-265.4
X251.8Y-265.4
X251.81Y-256.4
X252.55Y-171.5
X252.55Y-177.35
X253.127Y-192.4
X254.8Y-176.52
X254.82Y-172.0
X255.1Y-174.27
X256.3Y-264.5
X258.925Y-202.625
X259.35Y-256.35
X259.55Y-275.0
X259.6Y-226.4
X260.0Y-268.9
X264.65Y-166.55
X265.281Y-192.4
X265.625Y-280.425
X266.064Y-184.568
X267.11Y-183.22
X268.85Y-256.15
X268.85Y-275.5
X271.9Y-232.6
T4
X211.565Y-219.127
X212.835Y-219.127
T6
X194.56Y-223.9
X199.44Y-223.9
X231.59Y-216.36
X231.59Y-218.9
X231.59Y-221.44
T7
X154.9Y-190.98
X154.9Y-193.52
X154.9Y-196.06
X154.9Y-198.6
X154.9Y-201.14
X154.9Y-203.68
X154.9Y-206.22
X154.9Y-208.76
X154.9Y-211.3
X154.9Y-213.84
X156.3Y-222.745
X156.3Y-225.285
X156.3Y-227.825
X156.3Y-230.365
X156.96Y-275.9
X157.0Y-264.2
X157.0Y-268.1
X157.0Y-272.0
X157.44Y-190.98
X157.44Y-193.52
X157.44Y-196.06
X157.44Y-198.6
X157.44Y-201.14
X157.44Y-203.68
X157.44Y-206.22
X157.44Y-208.76
X157.44Y-211.3
X157.44Y-213.84
X159.5Y-275.9
X159.54Y-264.2
X159.54Y-268.1
X159.54Y-272.0
X161.3Y-222.82
X161.3Y-225.36
X161.3Y-227.9
X161.3Y-230.44
X162.04Y-275.9
X162.08Y-264.2
X162.08Y-268.1
X162.08Y-272.0
X166.0Y-170.23
X166.0Y-172.77
X166.0Y-175.31
X166.0Y-177.85
X167.225Y-220.75
X167.225Y-223.29
X171.09Y-220.95
X171.09Y-223.49
X171.09Y-226.03
X171.09Y-228.57
X171.09Y-231.11
X171.09Y-233.65
X171.09Y-236.19
X171.09Y-238.73
X171.09Y-241.27
X171.09Y-243.81
X171.09Y-246.35
X171.09Y-248.89
X171.09Y-251.43
X171.09Y-253.97
X171.09Y-256.51
X171.09Y-259.05
X174.8Y-247.7
X174.8Y-250.24
X176.45Y-215.525
X178.99Y-215.525
X181.53Y-215.525
X184.07Y-215.525
X186.61Y-215.525
X189.15Y-215.525
X191.69Y-215.525
X193.7Y-205.5
X194.23Y-215.525
X196.77Y-215.525
X199.31Y-215.525
X201.3Y-205.5
X201.85Y-215.525
X204.39Y-215.525
X206.93Y-215.525
X209.47Y-215.525
X209.73Y-200.59
X209.73Y-208.21
X212.01Y-215.525
X212.27Y-200.59
X212.27Y-208.21
X214.55Y-215.525
X219.115Y-220.95
X219.115Y-223.49
X219.115Y-226.03
X219.115Y-228.57
X219.115Y-231.11
X219.115Y-233.65
X219.115Y-236.19
X219.115Y-238.73
X219.115Y-241.27
X219.115Y-243.81
X219.115Y-246.35
X219.115Y-248.89
X219.115Y-251.43
X219.115Y-253.97
X219.115Y-256.51
X219.115Y-259.05
X226.6Y-216.345
X226.6Y-218.885
X226.6Y-221.425
X237.375Y-214.725
X237.375Y-217.265
X237.375Y-219.805
X237.375Y-222.345
X237.375Y-224.885
X237.375Y-227.425
X238.95Y-274.225
X241.49Y-274.225
X244.03Y-274.225
X244.135Y-269.4
X246.57Y-274.225
X246.675Y-269.4
X268.6Y-197.06
X268.6Y-199.6
X268.6Y-202.14
X268.6Y-204.68
X269.7Y-182.05
X269.7Y-184.59
T8
X155.127Y-243.355
X155.127Y-248.435
T9
X154.5Y-169.5
X154.5Y-295.5
X270.5Y-169.5
X270.5Y-295.5
T2
G00X193.5Y-297.675
M15
G01X193.5Y-298.325
M16
G05
G00X200.5Y-297.675
M15
G01X200.5Y-298.325
M16
G05
T3
G00X194.35Y-295.3
M15
G01X194.65Y-295.3
M16
G05
G00X199.35Y-295.3
M15
G01X199.65Y-295.3
M16
G05
T5
G00X171.68Y-293.725
M15
G01X171.68Y-294.525
M16
G05
G00X171.68Y-297.525
M15
G01X171.68Y-298.725
M16
G05
G00X180.32Y-293.725
M15
G01X180.32Y-294.525
M16
G05
G00X180.32Y-297.525
M15
G01X180.32Y-298.725
M16
G05
M30
